<?xml version="1.0" encoding="UTF-8"?>
<svg xmlns="http://www.w3.org/2000/svg" xmlns:xlink="http://www.w3.org/1999/xlink" width="16px" height="16px" viewBox="0 0 16 16" version="1.1">
<g id="surface1">
<path style=" stroke:none;fill-rule:nonzero;fill:rgb(1.176471%,66.27451%,95.686275%);fill-opacity:1;" d="M 14 4.144531 C 13.558594 4.339844 13.085938 4.46875 12.585938 4.53125 C 13.09375 4.226562 13.484375 3.746094 13.667969 3.175781 C 13.191406 3.457031 12.664062 3.660156 12.105469 3.769531 C 11.65625 3.292969 11.015625 3 10.308594 3 C 8.949219 3 7.847656 4.09375 7.847656 5.441406 C 7.847656 5.628906 7.867188 5.816406 7.910156 5.996094 C 5.863281 5.894531 4.050781 4.921875 2.835938 3.445312 C 2.621094 3.804688 2.503906 4.226562 2.503906 4.675781 C 2.503906 5.519531 2.9375 6.265625 3.597656 6.707031 C 3.195312 6.695312 2.8125 6.582031 2.480469 6.402344 C 2.480469 6.410156 2.480469 6.417969 2.480469 6.429688 C 2.480469 7.613281 3.332031 8.597656 4.457031 8.824219 C 4.25 8.878906 4.03125 8.910156 3.808594 8.910156 C 3.648438 8.910156 3.496094 8.894531 3.34375 8.867188 C 3.65625 9.832031 4.566406 10.539062 5.644531 10.5625 C 4.800781 11.214844 3.738281 11.605469 2.585938 11.605469 C 2.386719 11.605469 2.191406 11.59375 2 11.570312 C 3.089844 12.261719 4.382812 12.667969 5.773438 12.667969 C 10.300781 12.667969 12.78125 8.949219 12.78125 5.722656 C 12.78125 5.617188 12.777344 5.511719 12.769531 5.40625 C 13.253906 5.066406 13.671875 4.636719 14 4.144531 "/>
</g>
</svg>
